<mxfile host="app.diagrams.net" modified="2023-08-07T03:35:45.460Z" agent="Mozilla/5.0 (Windows NT 10.0; Win64; x64) AppleWebKit/537.36 (KHTML, like Gecko) Chrome/115.0.0.0 Safari/537.36 Edg/115.0.1901.188" etag="pehCFJKI1ATI9O0LFpX1" version="21.6.6" type="github">
  <diagram name="第 1 页" id="2Kp2IsGIeOANgpGV9u3z">
    <mxGraphModel dx="2764" dy="-91" grid="1" gridSize="10" guides="1" tooltips="1" connect="1" arrows="1" fold="1" page="1" pageScale="1" pageWidth="827" pageHeight="1169" math="0" shadow="0">
      <root>
        <mxCell id="0" />
        <mxCell id="1" parent="0" />
        <mxCell id="12ae3frHGvqBDCMUcqmj-1" value="" style="group" parent="1" vertex="1" connectable="0">
          <mxGeometry x="867" y="2482" width="450" height="210" as="geometry" />
        </mxCell>
        <mxCell id="12ae3frHGvqBDCMUcqmj-2" value="" style="rounded=1;whiteSpace=wrap;html=1;strokeColor=none;fillColor=#BAC8D3;fontSize=24;fontColor=#23445D;align=center;opacity=60;" parent="12ae3frHGvqBDCMUcqmj-1" vertex="1">
          <mxGeometry width="450" height="210" as="geometry" />
        </mxCell>
        <mxCell id="12ae3frHGvqBDCMUcqmj-3" value="" style="shape=mxgraph.cisco.servers.fileserver;html=1;dashed=0;fillColor=#10739E;strokeColor=#ffffff;strokeWidth=2;verticalLabelPosition=bottom;verticalAlign=top;fontFamily=Helvetica;fontSize=36;fontColor=#FFB366" parent="12ae3frHGvqBDCMUcqmj-1" vertex="1">
          <mxGeometry x="80" y="67" width="43" height="62" as="geometry" />
        </mxCell>
        <mxCell id="12ae3frHGvqBDCMUcqmj-4" value="" style="shape=mxgraph.cisco.servers.fileserver;html=1;dashed=0;fillColor=#10739E;strokeColor=#ffffff;strokeWidth=2;verticalLabelPosition=bottom;verticalAlign=top;fontFamily=Helvetica;fontSize=36;fontColor=#FFB366" parent="12ae3frHGvqBDCMUcqmj-1" vertex="1">
          <mxGeometry x="150" y="67" width="43" height="62" as="geometry" />
        </mxCell>
        <mxCell id="12ae3frHGvqBDCMUcqmj-5" value="" style="shape=mxgraph.cisco.computers_and_peripherals.ibm_mainframe;html=1;dashed=0;fillColor=#10739E;strokeColor=#ffffff;strokeWidth=2;verticalLabelPosition=bottom;verticalAlign=top;fontFamily=Helvetica;fontSize=36;fontColor=#FFB366" parent="12ae3frHGvqBDCMUcqmj-1" vertex="1">
          <mxGeometry x="230" y="63" width="50" height="70" as="geometry" />
        </mxCell>
        <mxCell id="12ae3frHGvqBDCMUcqmj-6" value="" style="shape=mxgraph.cisco.servers.storage_server;html=1;dashed=0;fillColor=#10739E;strokeColor=#ffffff;strokeWidth=2;verticalLabelPosition=bottom;verticalAlign=top;fontFamily=Helvetica;fontSize=36;fontColor=#FFB366" parent="12ae3frHGvqBDCMUcqmj-1" vertex="1">
          <mxGeometry x="310" y="51" width="54" height="83" as="geometry" />
        </mxCell>
        <mxCell id="12ae3frHGvqBDCMUcqmj-7" value="" style="line;html=1;strokeColor=#468CAA;" parent="12ae3frHGvqBDCMUcqmj-1" vertex="1">
          <mxGeometry x="32" y="177" width="388" height="10" as="geometry" />
        </mxCell>
        <mxCell id="12ae3frHGvqBDCMUcqmj-8" value="" style="edgeStyle=elbowEdgeStyle;elbow=horizontal;endArrow=none;html=1;strokeColor=#468CAA;endFill=0;strokeWidth=4;rounded=1" parent="12ae3frHGvqBDCMUcqmj-1" source="12ae3frHGvqBDCMUcqmj-3" edge="1">
          <mxGeometry width="100" height="100" relative="1" as="geometry">
            <mxPoint x="99" y="140" as="sourcePoint" />
            <mxPoint x="99.27777777777737" y="182.08333333333348" as="targetPoint" />
          </mxGeometry>
        </mxCell>
        <mxCell id="12ae3frHGvqBDCMUcqmj-9" value="" style="edgeStyle=elbowEdgeStyle;elbow=horizontal;endArrow=none;html=1;strokeColor=#468CAA;endFill=0;strokeWidth=4;rounded=1" parent="12ae3frHGvqBDCMUcqmj-1" source="12ae3frHGvqBDCMUcqmj-4" edge="1">
          <mxGeometry width="100" height="100" relative="1" as="geometry">
            <mxPoint x="171" y="140" as="sourcePoint" />
            <mxPoint x="171.27777777777828" y="182.08333333333348" as="targetPoint" />
          </mxGeometry>
        </mxCell>
        <mxCell id="12ae3frHGvqBDCMUcqmj-10" value="" style="edgeStyle=elbowEdgeStyle;elbow=horizontal;endArrow=none;html=1;strokeColor=#468CAA;endFill=0;strokeWidth=4;rounded=1" parent="12ae3frHGvqBDCMUcqmj-1" source="12ae3frHGvqBDCMUcqmj-5" edge="1">
          <mxGeometry width="100" height="100" relative="1" as="geometry">
            <mxPoint x="255" y="140" as="sourcePoint" />
            <mxPoint x="255.27777777777737" y="182.08333333333348" as="targetPoint" />
          </mxGeometry>
        </mxCell>
        <mxCell id="12ae3frHGvqBDCMUcqmj-11" value="" style="edgeStyle=elbowEdgeStyle;elbow=horizontal;endArrow=none;html=1;strokeColor=#468CAA;endFill=0;strokeWidth=4;rounded=1" parent="12ae3frHGvqBDCMUcqmj-1" source="12ae3frHGvqBDCMUcqmj-6" edge="1">
          <mxGeometry width="100" height="100" relative="1" as="geometry">
            <mxPoint x="340" y="140" as="sourcePoint" />
            <mxPoint x="340.2777777777774" y="182.08333333333348" as="targetPoint" />
          </mxGeometry>
        </mxCell>
        <mxCell id="12ae3frHGvqBDCMUcqmj-12" value="&lt;font color=&quot;#23445d&quot;&gt;Servers ( 實體 )&lt;/font&gt;" style="rounded=1;whiteSpace=wrap;html=1;strokeColor=none;fillColor=none;fontSize=14;fontColor=#742B21;align=center;fontStyle=1" parent="12ae3frHGvqBDCMUcqmj-1" vertex="1">
          <mxGeometry x="155" y="12" width="143" height="19" as="geometry" />
        </mxCell>
        <mxCell id="12ae3frHGvqBDCMUcqmj-13" style="rounded=1;orthogonalLoop=1;jettySize=auto;html=1;exitX=0.5;exitY=0;exitDx=0;exitDy=0;entryX=0.5;entryY=0.98;entryDx=0;entryDy=0;entryPerimeter=0;strokeColor=#468CAA;strokeWidth=4;endArrow=none;endFill=0;" parent="1" source="12ae3frHGvqBDCMUcqmj-60" target="12ae3frHGvqBDCMUcqmj-56" edge="1">
          <mxGeometry relative="1" as="geometry" />
        </mxCell>
        <mxCell id="12ae3frHGvqBDCMUcqmj-14" value="" style="group" parent="1" vertex="1" connectable="0">
          <mxGeometry x="199.9999999999999" y="2209" width="105" height="112" as="geometry" />
        </mxCell>
        <mxCell id="12ae3frHGvqBDCMUcqmj-15" value="" style="sketch=0;points=[[0.015,0.015,0],[0.985,0.015,0],[0.985,0.985,0],[0.015,0.985,0],[0.25,0,0],[0.5,0,0],[0.75,0,0],[1,0.25,0],[1,0.5,0],[1,0.75,0],[0.75,1,0],[0.5,1,0],[0.25,1,0],[0,0.75,0],[0,0.5,0],[0,0.25,0]];verticalLabelPosition=bottom;html=1;verticalAlign=top;aspect=fixed;align=center;pointerEvents=1;shape=mxgraph.cisco19.rect;prIcon=firewall;fillColor=#FAFAFA;strokeColor=#005073;" parent="12ae3frHGvqBDCMUcqmj-14" vertex="1">
          <mxGeometry x="1.3000000000000114" width="102.4" height="80" as="geometry" />
        </mxCell>
        <mxCell id="12ae3frHGvqBDCMUcqmj-16" value="Juniper SSG-140&lt;br&gt;IP: 192.168.1.250" style="text;html=1;strokeColor=none;fillColor=none;align=center;verticalAlign=middle;whiteSpace=wrap;rounded=0;" parent="12ae3frHGvqBDCMUcqmj-14" vertex="1">
          <mxGeometry y="82" width="105" height="30" as="geometry" />
        </mxCell>
        <mxCell id="12ae3frHGvqBDCMUcqmj-17" value="" style="group;points=[[0,0,0,0,0],[0,0.25,0,0,0],[0,0.5,0,0,0],[0,0.75,0,0,0],[0,1,0,0,0],[0.25,0,0,0,0],[0.25,1,0,0,0],[0.5,0,0,0,0],[0.5,1,0,0,0],[0.75,0,0,0,0],[0.75,1,0,0,0],[1,0,0,0,0],[1,0.25,0,0,0],[1,0.5,0,0,0],[1,0.75,0,0,0],[1,1,0,0,0]];" parent="1" vertex="1" connectable="0">
          <mxGeometry x="520" y="2204" width="110" height="120" as="geometry" />
        </mxCell>
        <mxCell id="12ae3frHGvqBDCMUcqmj-18" value="" style="shape=mxgraph.cisco.switches.layer_3_switch;sketch=0;html=1;pointerEvents=1;dashed=0;fillColor=#036897;strokeColor=#ffffff;strokeWidth=2;verticalLabelPosition=bottom;verticalAlign=top;align=center;outlineConnect=0;aspect=fixed;points=[[0,0.25,0,0,0],[0,0.5,0,0,0],[0,0.76,0,0,0],[0,1,0,0,0],[0.07,0,0,0,0],[0.29,0,0,0,0],[0.5,0,0,0,0],[0.5,1,0,0,0],[0.75,0,0,0,0],[0.95,0.94,0,0,0],[1,0,0,0,0],[1,0.5,0,0,0]];" parent="12ae3frHGvqBDCMUcqmj-17" vertex="1">
          <mxGeometry x="10.5" width="89" height="89" as="geometry" />
        </mxCell>
        <mxCell id="12ae3frHGvqBDCMUcqmj-19" value="Cisco 3560G&lt;br&gt;IP: 192.168.1.252" style="text;html=1;strokeColor=none;fillColor=none;align=center;verticalAlign=middle;whiteSpace=wrap;rounded=0;" parent="12ae3frHGvqBDCMUcqmj-17" vertex="1">
          <mxGeometry y="90" width="110" height="30" as="geometry" />
        </mxCell>
        <mxCell id="12ae3frHGvqBDCMUcqmj-20" style="rounded=1;orthogonalLoop=1;jettySize=auto;html=1;exitX=1;exitY=0.5;exitDx=0;exitDy=0;exitPerimeter=0;entryX=0;entryY=0.5;entryDx=0;entryDy=0;entryPerimeter=0;strokeColor=#468CAA;endArrow=none;endFill=0;strokeWidth=4;" parent="1" source="12ae3frHGvqBDCMUcqmj-15" target="12ae3frHGvqBDCMUcqmj-18" edge="1">
          <mxGeometry relative="1" as="geometry" />
        </mxCell>
        <mxCell id="12ae3frHGvqBDCMUcqmj-21" value="" style="group" parent="1" vertex="1" connectable="0">
          <mxGeometry x="1175" y="2209" width="90" height="113" as="geometry" />
        </mxCell>
        <mxCell id="12ae3frHGvqBDCMUcqmj-22" value="" style="sketch=0;points=[[0.015,0.015,0],[0.985,0.015,0],[0.985,0.985,0],[0.015,0.985,0],[0.25,0,0],[0.5,0,0],[0.75,0,0],[1,0.25,0],[1,0.5,0],[1,0.75,0],[0.75,1,0],[0.5,1,0],[0.25,1,0],[0,0.75,0],[0,0.5,0],[0,0.25,0]];verticalLabelPosition=bottom;html=1;verticalAlign=top;aspect=fixed;align=center;pointerEvents=1;shape=mxgraph.cisco19.rect;prIcon=l3_switch;fillColor=#FAFAFA;strokeColor=#005073;" parent="12ae3frHGvqBDCMUcqmj-21" vertex="1">
          <mxGeometry x="5" width="80" height="80" as="geometry" />
        </mxCell>
        <mxCell id="12ae3frHGvqBDCMUcqmj-23" value="Dell 10G&lt;br&gt;IP: 192.168.X.X" style="text;html=1;strokeColor=none;fillColor=none;align=center;verticalAlign=middle;whiteSpace=wrap;rounded=0;" parent="12ae3frHGvqBDCMUcqmj-21" vertex="1">
          <mxGeometry y="83" width="90" height="30" as="geometry" />
        </mxCell>
        <mxCell id="12ae3frHGvqBDCMUcqmj-24" style="rounded=1;orthogonalLoop=1;jettySize=auto;html=1;exitX=1;exitY=0.5;exitDx=0;exitDy=0;exitPerimeter=0;entryX=0;entryY=0.5;entryDx=0;entryDy=0;entryPerimeter=0;strokeWidth=4;strokeColor=#468CAA;endArrow=none;endFill=0;" parent="1" source="12ae3frHGvqBDCMUcqmj-18" target="12ae3frHGvqBDCMUcqmj-64" edge="1">
          <mxGeometry relative="1" as="geometry" />
        </mxCell>
        <mxCell id="12ae3frHGvqBDCMUcqmj-25" style="edgeStyle=orthogonalEdgeStyle;rounded=1;orthogonalLoop=1;jettySize=auto;html=1;exitX=1;exitY=0.5;exitDx=0;exitDy=0;exitPerimeter=0;entryX=0;entryY=0.5;entryDx=0;entryDy=0;entryPerimeter=0;strokeColor=#468CAA;strokeWidth=4;endArrow=none;endFill=0;" parent="1" source="12ae3frHGvqBDCMUcqmj-64" target="12ae3frHGvqBDCMUcqmj-22" edge="1">
          <mxGeometry relative="1" as="geometry" />
        </mxCell>
        <mxCell id="12ae3frHGvqBDCMUcqmj-26" value="" style="group" parent="1" vertex="1" connectable="0">
          <mxGeometry x="205" y="2380" width="100" height="149.44000000000005" as="geometry" />
        </mxCell>
        <mxCell id="12ae3frHGvqBDCMUcqmj-27" value="" style="shape=mxgraph.cisco.routers.router;sketch=0;html=1;pointerEvents=1;dashed=0;fillColor=#036897;strokeColor=#ffffff;strokeWidth=2;verticalLabelPosition=bottom;verticalAlign=top;align=center;outlineConnect=0;aspect=fixed;" parent="12ae3frHGvqBDCMUcqmj-26" vertex="1">
          <mxGeometry x="7" width="86" height="58.44" as="geometry" />
        </mxCell>
        <mxCell id="12ae3frHGvqBDCMUcqmj-28" value="Cisco 2900&lt;br&gt;IP: 192.168.1.253" style="text;html=1;strokeColor=none;fillColor=none;align=center;verticalAlign=middle;whiteSpace=wrap;rounded=0;" parent="12ae3frHGvqBDCMUcqmj-26" vertex="1">
          <mxGeometry y="61" width="100" height="30" as="geometry" />
        </mxCell>
        <mxCell id="eVyLxdBei2JVoM4hP0GL-2" value="" style="group" parent="12ae3frHGvqBDCMUcqmj-26" vertex="1" connectable="0">
          <mxGeometry y="118.44000000000005" width="100" height="91" as="geometry" />
        </mxCell>
        <mxCell id="eVyLxdBei2JVoM4hP0GL-3" value="" style="shape=mxgraph.cisco.routers.router;sketch=0;html=1;pointerEvents=1;dashed=0;fillColor=#036897;strokeColor=#ffffff;strokeWidth=2;verticalLabelPosition=bottom;verticalAlign=top;align=center;outlineConnect=0;aspect=fixed;" parent="eVyLxdBei2JVoM4hP0GL-2" vertex="1">
          <mxGeometry x="7" width="86" height="58.44" as="geometry" />
        </mxCell>
        <mxCell id="eVyLxdBei2JVoM4hP0GL-4" value="Cisco 800&lt;br&gt;IP: 192.168.1.236" style="text;html=1;strokeColor=none;fillColor=none;align=center;verticalAlign=middle;whiteSpace=wrap;rounded=0;" parent="eVyLxdBei2JVoM4hP0GL-2" vertex="1">
          <mxGeometry y="61" width="100" height="30" as="geometry" />
        </mxCell>
        <mxCell id="12ae3frHGvqBDCMUcqmj-29" value="" style="group" parent="1" vertex="1" connectable="0">
          <mxGeometry x="845.5" y="1930" width="105" height="112" as="geometry" />
        </mxCell>
        <mxCell id="12ae3frHGvqBDCMUcqmj-30" value="" style="sketch=0;points=[[0.015,0.015,0],[0.985,0.015,0],[0.985,0.985,0],[0.015,0.985,0],[0.25,0,0],[0.5,0,0],[0.75,0,0],[1,0.25,0],[1,0.5,0],[1,0.75,0],[0.75,1,0],[0.5,1,0],[0.25,1,0],[0,0.75,0],[0,0.5,0],[0,0.25,0]];verticalLabelPosition=bottom;html=1;verticalAlign=top;aspect=fixed;align=center;pointerEvents=1;shape=mxgraph.cisco19.rect;prIcon=firewall;fillColor=#FAFAFA;strokeColor=#005073;container=0;" parent="12ae3frHGvqBDCMUcqmj-29" vertex="1">
          <mxGeometry x="0.5" width="102.4" height="80" as="geometry" />
        </mxCell>
        <mxCell id="12ae3frHGvqBDCMUcqmj-31" value="Fortinet 201&lt;br&gt;192.168.1.30" style="text;html=1;strokeColor=none;fillColor=none;align=center;verticalAlign=middle;whiteSpace=wrap;rounded=0;" parent="12ae3frHGvqBDCMUcqmj-29" vertex="1">
          <mxGeometry y="82" width="105" height="30" as="geometry" />
        </mxCell>
        <mxCell id="12ae3frHGvqBDCMUcqmj-32" style="rounded=1;orthogonalLoop=1;jettySize=auto;html=1;exitX=1;exitY=0.5;exitDx=0;exitDy=0;exitPerimeter=0;entryX=0;entryY=0.76;entryDx=0;entryDy=0;entryPerimeter=0;strokeColor=#468CAA;strokeWidth=4;endArrow=none;endFill=0;edgeStyle=orthogonalEdgeStyle;" parent="1" source="12ae3frHGvqBDCMUcqmj-27" target="12ae3frHGvqBDCMUcqmj-18" edge="1">
          <mxGeometry relative="1" as="geometry" />
        </mxCell>
        <mxCell id="12ae3frHGvqBDCMUcqmj-33" style="rounded=1;orthogonalLoop=1;jettySize=auto;html=1;entryX=0.5;entryY=0;entryDx=0;entryDy=0;entryPerimeter=0;endArrow=none;endFill=0;strokeWidth=4;strokeColor=#468CAA;edgeStyle=orthogonalEdgeStyle;exitX=0.5;exitY=1;exitDx=0;exitDy=0;exitPerimeter=0;" parent="1" source="12ae3frHGvqBDCMUcqmj-30" target="12ae3frHGvqBDCMUcqmj-64" edge="1">
          <mxGeometry relative="1" as="geometry">
            <mxPoint x="1210" y="2090" as="sourcePoint" />
          </mxGeometry>
        </mxCell>
        <mxCell id="12ae3frHGvqBDCMUcqmj-34" value="" style="group" parent="1" vertex="1" connectable="0">
          <mxGeometry x="1490" y="2482" width="450" height="210" as="geometry" />
        </mxCell>
        <mxCell id="12ae3frHGvqBDCMUcqmj-35" value="" style="rounded=1;whiteSpace=wrap;html=1;strokeColor=none;fillColor=#BAC8D3;fontSize=24;fontColor=#23445D;align=center;opacity=60;" parent="12ae3frHGvqBDCMUcqmj-34" vertex="1">
          <mxGeometry width="450" height="210" as="geometry" />
        </mxCell>
        <mxCell id="12ae3frHGvqBDCMUcqmj-36" value="" style="shape=mxgraph.cisco.servers.fileserver;html=1;dashed=0;fillColor=#10739E;strokeColor=#ffffff;strokeWidth=2;verticalLabelPosition=bottom;verticalAlign=top;fontFamily=Helvetica;fontSize=36;fontColor=#FFB366" parent="12ae3frHGvqBDCMUcqmj-34" vertex="1">
          <mxGeometry x="80" y="67" width="43" height="62" as="geometry" />
        </mxCell>
        <mxCell id="12ae3frHGvqBDCMUcqmj-37" value="" style="shape=mxgraph.cisco.servers.fileserver;html=1;dashed=0;fillColor=#10739E;strokeColor=#ffffff;strokeWidth=2;verticalLabelPosition=bottom;verticalAlign=top;fontFamily=Helvetica;fontSize=36;fontColor=#FFB366" parent="12ae3frHGvqBDCMUcqmj-34" vertex="1">
          <mxGeometry x="150" y="67" width="43" height="62" as="geometry" />
        </mxCell>
        <mxCell id="12ae3frHGvqBDCMUcqmj-38" value="" style="shape=mxgraph.cisco.computers_and_peripherals.ibm_mainframe;html=1;dashed=0;fillColor=#10739E;strokeColor=#ffffff;strokeWidth=2;verticalLabelPosition=bottom;verticalAlign=top;fontFamily=Helvetica;fontSize=36;fontColor=#FFB366" parent="12ae3frHGvqBDCMUcqmj-34" vertex="1">
          <mxGeometry x="230" y="63" width="50" height="70" as="geometry" />
        </mxCell>
        <mxCell id="12ae3frHGvqBDCMUcqmj-39" value="" style="shape=mxgraph.cisco.servers.storage_server;html=1;dashed=0;fillColor=#10739E;strokeColor=#ffffff;strokeWidth=2;verticalLabelPosition=bottom;verticalAlign=top;fontFamily=Helvetica;fontSize=36;fontColor=#FFB366" parent="12ae3frHGvqBDCMUcqmj-34" vertex="1">
          <mxGeometry x="310" y="51" width="54" height="83" as="geometry" />
        </mxCell>
        <mxCell id="12ae3frHGvqBDCMUcqmj-40" value="" style="line;html=1;strokeColor=#468CAA;" parent="12ae3frHGvqBDCMUcqmj-34" vertex="1">
          <mxGeometry x="32" y="177" width="388" height="10" as="geometry" />
        </mxCell>
        <mxCell id="12ae3frHGvqBDCMUcqmj-41" value="" style="edgeStyle=elbowEdgeStyle;elbow=horizontal;endArrow=none;html=1;strokeColor=#468CAA;endFill=0;strokeWidth=4;rounded=1" parent="12ae3frHGvqBDCMUcqmj-34" source="12ae3frHGvqBDCMUcqmj-36" edge="1">
          <mxGeometry width="100" height="100" relative="1" as="geometry">
            <mxPoint x="99" y="140" as="sourcePoint" />
            <mxPoint x="99.27777777777737" y="182.08333333333348" as="targetPoint" />
          </mxGeometry>
        </mxCell>
        <mxCell id="12ae3frHGvqBDCMUcqmj-42" value="" style="edgeStyle=elbowEdgeStyle;elbow=horizontal;endArrow=none;html=1;strokeColor=#468CAA;endFill=0;strokeWidth=4;rounded=1" parent="12ae3frHGvqBDCMUcqmj-34" source="12ae3frHGvqBDCMUcqmj-37" edge="1">
          <mxGeometry width="100" height="100" relative="1" as="geometry">
            <mxPoint x="171" y="140" as="sourcePoint" />
            <mxPoint x="171.27777777777828" y="182.08333333333348" as="targetPoint" />
          </mxGeometry>
        </mxCell>
        <mxCell id="12ae3frHGvqBDCMUcqmj-43" value="" style="edgeStyle=elbowEdgeStyle;elbow=horizontal;endArrow=none;html=1;strokeColor=#468CAA;endFill=0;strokeWidth=4;rounded=1" parent="12ae3frHGvqBDCMUcqmj-34" source="12ae3frHGvqBDCMUcqmj-38" edge="1">
          <mxGeometry width="100" height="100" relative="1" as="geometry">
            <mxPoint x="255" y="140" as="sourcePoint" />
            <mxPoint x="255.27777777777737" y="182.08333333333348" as="targetPoint" />
          </mxGeometry>
        </mxCell>
        <mxCell id="12ae3frHGvqBDCMUcqmj-44" value="" style="edgeStyle=elbowEdgeStyle;elbow=horizontal;endArrow=none;html=1;strokeColor=#468CAA;endFill=0;strokeWidth=4;rounded=1" parent="12ae3frHGvqBDCMUcqmj-34" source="12ae3frHGvqBDCMUcqmj-39" edge="1">
          <mxGeometry width="100" height="100" relative="1" as="geometry">
            <mxPoint x="340" y="140" as="sourcePoint" />
            <mxPoint x="340.2777777777774" y="182.08333333333348" as="targetPoint" />
          </mxGeometry>
        </mxCell>
        <mxCell id="12ae3frHGvqBDCMUcqmj-45" value="&lt;font color=&quot;#23445d&quot;&gt;Servers ( VM )&lt;/font&gt;" style="rounded=1;whiteSpace=wrap;html=1;strokeColor=none;fillColor=none;fontSize=14;fontColor=#742B21;align=center;fontStyle=1" parent="12ae3frHGvqBDCMUcqmj-34" vertex="1">
          <mxGeometry x="155" y="12" width="143" height="19" as="geometry" />
        </mxCell>
        <mxCell id="12ae3frHGvqBDCMUcqmj-46" style="rounded=1;orthogonalLoop=1;jettySize=auto;html=1;exitX=1;exitY=0.5;exitDx=0;exitDy=0;exitPerimeter=0;entryX=0;entryY=0.5;entryDx=0;entryDy=0;entryPerimeter=0;strokeWidth=4;strokeColor=#468CAA;edgeStyle=orthogonalEdgeStyle;endArrow=none;endFill=0;" parent="1" source="12ae3frHGvqBDCMUcqmj-22" target="12ae3frHGvqBDCMUcqmj-40" edge="1">
          <mxGeometry relative="1" as="geometry">
            <Array as="points">
              <mxPoint x="1430" y="2249" />
              <mxPoint x="1430" y="2664" />
            </Array>
          </mxGeometry>
        </mxCell>
        <mxCell id="12ae3frHGvqBDCMUcqmj-47" style="rounded=1;orthogonalLoop=1;jettySize=auto;html=1;entryX=0.29;entryY=0;entryDx=0;entryDy=0;entryPerimeter=0;strokeColor=#468CAA;strokeWidth=4;endArrow=none;endFill=0;exitX=0.5;exitY=0.99;exitDx=0;exitDy=0;exitPerimeter=0;edgeStyle=elbowEdgeStyle;elbow=vertical;" parent="1" source="FHWAyMyx4tsviVWadhPC-7" target="12ae3frHGvqBDCMUcqmj-18" edge="1">
          <mxGeometry relative="1" as="geometry">
            <mxPoint x="560" y="1910" as="sourcePoint" />
            <Array as="points">
              <mxPoint x="400" y="1930" />
            </Array>
          </mxGeometry>
        </mxCell>
        <mxCell id="12ae3frHGvqBDCMUcqmj-49" value="&lt;p style=&quot;margin-top: 0pt; margin-bottom: 0pt; margin-left: 0in; direction: ltr; unicode-bidi: embed; word-break: normal; font-size: 23px;&quot;&gt;&lt;/p&gt;&lt;p style=&quot;margin-top: 0pt; margin-bottom: 0pt; margin-left: 0in; direction: ltr; unicode-bidi: embed; word-break: normal;&quot;&gt;&lt;span style=&quot;background-color: initial; font-size: 18pt; color: rgb(0, 0, 0);&quot;&gt;林口&lt;/span&gt;&lt;br&gt;&lt;/p&gt;" style="shape=mxgraph.cisco.storage.cloud;html=1;dashed=0;strokeColor=#23445D;fillColor=#ffffff;strokeWidth=2;fontFamily=Helvetica;fontSize=24;fontColor=#23445D;align=center;fontStyle=1" parent="1" vertex="1">
          <mxGeometry x="-90" y="1897" width="190" height="125" as="geometry" />
        </mxCell>
        <mxCell id="12ae3frHGvqBDCMUcqmj-50" style="rounded=1;orthogonalLoop=1;jettySize=auto;html=1;entryX=0.98;entryY=0.5;entryDx=0;entryDy=0;entryPerimeter=0;strokeColor=#468CAA;strokeWidth=4;endArrow=none;endFill=0;exitX=0.07;exitY=0;exitDx=0;exitDy=0;exitPerimeter=0;edgeStyle=elbowEdgeStyle;elbow=vertical;" parent="1" edge="1">
          <mxGeometry relative="1" as="geometry">
            <mxPoint x="536.7300000000005" y="2204" as="sourcePoint" />
            <mxPoint x="96.20000000000027" y="1959.5000000000002" as="targetPoint" />
            <Array as="points">
              <mxPoint x="330" y="1960" />
            </Array>
          </mxGeometry>
        </mxCell>
        <mxCell id="12ae3frHGvqBDCMUcqmj-51" value="&lt;p style=&quot;margin-top: 0pt; margin-bottom: 0pt; margin-left: 0in; direction: ltr; unicode-bidi: embed; word-break: normal; font-size: 24px;&quot;&gt;&lt;br&gt;&lt;/p&gt;" style="text;html=1;align=center;verticalAlign=middle;resizable=0;points=[];autosize=1;strokeColor=none;fillColor=none;" parent="1" vertex="1">
          <mxGeometry x="579.5" y="2380" width="20" height="40" as="geometry" />
        </mxCell>
        <mxCell id="12ae3frHGvqBDCMUcqmj-52" style="rounded=1;orthogonalLoop=1;jettySize=auto;html=1;exitX=0;exitY=0.5;exitDx=0;exitDy=0;exitPerimeter=0;entryX=0.5;entryY=1;entryDx=0;entryDy=0;entryPerimeter=0;strokeColor=#468CAA;strokeWidth=4;endArrow=none;endFill=0;" parent="1" source="12ae3frHGvqBDCMUcqmj-7" target="12ae3frHGvqBDCMUcqmj-64" edge="1">
          <mxGeometry relative="1" as="geometry" />
        </mxCell>
        <mxCell id="12ae3frHGvqBDCMUcqmj-53" style="rounded=1;orthogonalLoop=1;jettySize=auto;html=1;exitX=0.98;exitY=0.5;exitDx=0;exitDy=0;exitPerimeter=0;strokeColor=#468CAA;strokeWidth=4;endArrow=none;endFill=0;edgeStyle=orthogonalEdgeStyle;entryX=0;entryY=0.25;entryDx=0;entryDy=0;entryPerimeter=0;" parent="1" source="12ae3frHGvqBDCMUcqmj-54" target="12ae3frHGvqBDCMUcqmj-18" edge="1">
          <mxGeometry relative="1" as="geometry">
            <mxPoint x="430" y="2190" as="targetPoint" />
            <Array as="points">
              <mxPoint x="440" y="2095" />
              <mxPoint x="440" y="2226" />
            </Array>
          </mxGeometry>
        </mxCell>
        <mxCell id="12ae3frHGvqBDCMUcqmj-54" value="&lt;p style=&quot;margin-top: 0pt; margin-bottom: 0pt; margin-left: 0in; direction: ltr; unicode-bidi: embed; word-break: normal; font-size: 23px;&quot;&gt;&lt;/p&gt;&lt;p style=&quot;border-color: var(--border-color); color: rgb(0, 0, 0); font-weight: 400; margin-top: 0pt; margin-bottom: 0pt; margin-left: 0in; direction: ltr; unicode-bidi: embed; word-break: normal;&quot;&gt;&lt;font style=&quot;border-color: var(--border-color);&quot;&gt;VX1200&lt;/font&gt;&lt;/p&gt;&lt;p style=&quot;border-color: var(--border-color); color: rgb(0, 0, 0); font-weight: 400; margin-top: 0pt; margin-bottom: 0pt; margin-left: 0in; direction: ltr; unicode-bidi: embed; word-break: normal;&quot;&gt;&lt;font style=&quot;border-color: var(--border-color);&quot;&gt;Lync to&amp;nbsp;&lt;span style=&quot;border-color: var(--border-color); font-family: 微軟正黑體;&quot;&gt;手機、市話&lt;/span&gt;&lt;/font&gt;&lt;/p&gt;" style="shape=mxgraph.cisco.storage.cloud;html=1;dashed=0;strokeColor=#23445D;fillColor=#ffffff;strokeWidth=2;fontFamily=Helvetica;fontSize=24;fontColor=#23445D;align=center;fontStyle=1" parent="1" vertex="1">
          <mxGeometry x="-131" y="2032.5" width="272" height="125" as="geometry" />
        </mxCell>
        <mxCell id="12ae3frHGvqBDCMUcqmj-55" value="" style="group" parent="1" vertex="1" connectable="0">
          <mxGeometry x="513" y="2380" width="124.5" height="83" as="geometry" />
        </mxCell>
        <mxCell id="12ae3frHGvqBDCMUcqmj-56" value="" style="shape=mxgraph.cisco.switches.workgroup_switch;sketch=0;html=1;pointerEvents=1;dashed=0;fillColor=#036897;strokeColor=#ffffff;strokeWidth=2;verticalLabelPosition=bottom;verticalAlign=top;align=center;outlineConnect=0;aspect=fixed;" parent="12ae3frHGvqBDCMUcqmj-55" vertex="1">
          <mxGeometry x="12.25" width="100" height="49.5" as="geometry" />
        </mxCell>
        <mxCell id="12ae3frHGvqBDCMUcqmj-57" value="3 com switch&lt;br style=&quot;font-size: 12px;&quot;&gt;IP: 192.168.1.248/249" style="text;html=1;strokeColor=none;fillColor=none;align=center;verticalAlign=middle;whiteSpace=wrap;rounded=0;fontSize=12;" parent="12ae3frHGvqBDCMUcqmj-55" vertex="1">
          <mxGeometry y="53" width="124.5" height="30" as="geometry" />
        </mxCell>
        <mxCell id="12ae3frHGvqBDCMUcqmj-58" style="rounded=1;orthogonalLoop=1;jettySize=auto;html=1;exitX=0.5;exitY=0;exitDx=0;exitDy=0;exitPerimeter=0;entryX=0.5;entryY=1;entryDx=0;entryDy=0;entryPerimeter=0;strokeColor=#468CAA;strokeWidth=4;endArrow=none;endFill=0;" parent="1" source="12ae3frHGvqBDCMUcqmj-56" target="12ae3frHGvqBDCMUcqmj-18" edge="1">
          <mxGeometry relative="1" as="geometry" />
        </mxCell>
        <mxCell id="12ae3frHGvqBDCMUcqmj-59" value="" style="group" parent="1" vertex="1" connectable="0">
          <mxGeometry x="495" y="2507" width="160" height="180" as="geometry" />
        </mxCell>
        <mxCell id="12ae3frHGvqBDCMUcqmj-60" value="" style="rounded=1;whiteSpace=wrap;html=1;strokeColor=none;fillColor=#BAC8D3;fontSize=24;fontColor=#23445D;align=center;opacity=60;" parent="12ae3frHGvqBDCMUcqmj-59" vertex="1">
          <mxGeometry width="160" height="180" as="geometry" />
        </mxCell>
        <mxCell id="12ae3frHGvqBDCMUcqmj-61" value="&lt;font color=&quot;#23445d&quot;&gt;&amp;nbsp;HQ User Group&lt;/font&gt;" style="rounded=1;whiteSpace=wrap;html=1;strokeColor=none;fillColor=none;fontSize=14;fontColor=#742B21;align=center;fontStyle=1" parent="12ae3frHGvqBDCMUcqmj-59" vertex="1">
          <mxGeometry x="11.75" y="20" width="143" height="19" as="geometry" />
        </mxCell>
        <mxCell id="12ae3frHGvqBDCMUcqmj-62" value="" style="shape=mxgraph.cisco.computers_and_peripherals.macintosh;sketch=0;html=1;pointerEvents=1;dashed=0;fillColor=#036897;strokeColor=#ffffff;strokeWidth=2;verticalLabelPosition=bottom;verticalAlign=top;align=center;outlineConnect=0;" parent="12ae3frHGvqBDCMUcqmj-59" vertex="1">
          <mxGeometry x="33.75" y="70" width="99" height="64" as="geometry" />
        </mxCell>
        <mxCell id="12ae3frHGvqBDCMUcqmj-63" value="" style="group" parent="1" vertex="1" connectable="0">
          <mxGeometry x="843" y="2204" width="110" height="120" as="geometry" />
        </mxCell>
        <mxCell id="12ae3frHGvqBDCMUcqmj-64" value="" style="shape=mxgraph.cisco.switches.layer_3_switch;sketch=0;html=1;pointerEvents=1;dashed=0;fillColor=#036897;strokeColor=#ffffff;strokeWidth=2;verticalLabelPosition=bottom;verticalAlign=top;align=center;outlineConnect=0;aspect=fixed;" parent="12ae3frHGvqBDCMUcqmj-63" vertex="1">
          <mxGeometry x="10.5" width="89" height="89" as="geometry" />
        </mxCell>
        <mxCell id="12ae3frHGvqBDCMUcqmj-65" value="Cisco 3560X&lt;br&gt;IP: 192.168.1.251" style="text;html=1;strokeColor=none;fillColor=none;align=center;verticalAlign=middle;whiteSpace=wrap;rounded=0;" parent="12ae3frHGvqBDCMUcqmj-63" vertex="1">
          <mxGeometry y="90" width="110" height="30" as="geometry" />
        </mxCell>
        <mxCell id="12ae3frHGvqBDCMUcqmj-66" style="rounded=1;orthogonalLoop=1;jettySize=auto;html=1;exitX=0.98;exitY=0.5;exitDx=0;exitDy=0;exitPerimeter=0;entryX=0;entryY=0.5;entryDx=0;entryDy=0;entryPerimeter=0;strokeColor=#468CAA;strokeWidth=4;endArrow=none;endFill=0;" parent="1" source="12ae3frHGvqBDCMUcqmj-67" target="12ae3frHGvqBDCMUcqmj-15" edge="1">
          <mxGeometry relative="1" as="geometry" />
        </mxCell>
        <mxCell id="12ae3frHGvqBDCMUcqmj-67" value="&lt;p style=&quot;margin-top: 0pt; margin-bottom: 0pt; margin-left: 0in; direction: ltr; unicode-bidi: embed; word-break: normal; font-size: 23px;&quot;&gt;&lt;/p&gt;&lt;p style=&quot;margin-top: 0pt; margin-bottom: 0pt; margin-left: 0in; direction: ltr; unicode-bidi: embed; word-break: normal;&quot;&gt;&lt;span style=&quot;font-size: 18pt; color: rgb(0, 0, 0); background-color: initial;&quot;&gt;美國&lt;/span&gt;&lt;br&gt;&lt;/p&gt;&lt;p style=&quot;margin-top: 0pt; margin-bottom: 0pt; margin-left: 0in; direction: ltr; unicode-bidi: embed; word-break: normal;&quot;&gt;&lt;span style=&quot;color: rgb(0, 0, 0); font-size: 18pt; background-color: initial;&quot;&gt;福永&lt;/span&gt;&lt;font color=&quot;#000000&quot;&gt;&lt;br&gt;&lt;/font&gt;&lt;/p&gt;" style="shape=mxgraph.cisco.storage.cloud;html=1;dashed=0;strokeColor=#23445D;fillColor=#ffffff;strokeWidth=2;fontFamily=Helvetica;fontSize=24;fontColor=#23445D;align=center;fontStyle=1" parent="1" vertex="1">
          <mxGeometry x="-90" y="2178.25" width="190" height="141.5" as="geometry" />
        </mxCell>
        <mxCell id="12ae3frHGvqBDCMUcqmj-68" style="rounded=1;orthogonalLoop=1;jettySize=auto;html=1;exitX=0.98;exitY=0.5;exitDx=0;exitDy=0;exitPerimeter=0;entryX=0;entryY=0.5;entryDx=0;entryDy=0;entryPerimeter=0;endArrow=none;endFill=0;strokeColor=#468CAA;strokeWidth=4;" parent="1" source="12ae3frHGvqBDCMUcqmj-69" target="12ae3frHGvqBDCMUcqmj-27" edge="1">
          <mxGeometry relative="1" as="geometry" />
        </mxCell>
        <mxCell id="12ae3frHGvqBDCMUcqmj-69" value="&lt;p style=&quot;margin-top: 0pt; margin-bottom: 0pt; margin-left: 0in; direction: ltr; unicode-bidi: embed; word-break: normal; font-size: 23px;&quot;&gt;&lt;/p&gt;&lt;p style=&quot;margin-top: 0pt; margin-bottom: 0pt; margin-left: 0in; direction: ltr; unicode-bidi: embed; word-break: normal;&quot;&gt;&lt;font style=&quot;background-color: initial;&quot; color=&quot;#000000&quot;&gt;&lt;span style=&quot;font-size: 18pt; font-family: 微軟正黑體;&quot;&gt;浩興昆山&lt;/span&gt;&lt;/font&gt;&lt;br&gt;&lt;/p&gt;&lt;p style=&quot;margin-top: 0pt; margin-bottom: 0pt; margin-left: 0in; direction: ltr; unicode-bidi: embed; word-break: normal;&quot;&gt;&lt;span style=&quot;font-family: 微軟正黑體; font-size: 18pt; color: rgb(0, 0, 0); background-color: initial;&quot;&gt;浩興深圳&lt;/span&gt;&lt;/p&gt;&lt;p style=&quot;margin-top: 0pt; margin-bottom: 0pt; margin-left: 0in; direction: ltr; unicode-bidi: embed; word-break: normal;&quot;&gt;&lt;span style=&quot;color: rgb(0, 0, 0); background-color: initial; font-size: 18pt; font-family: 微軟正黑體;&quot;&gt;深圳耕興&lt;/span&gt;&lt;br&gt;&lt;/p&gt;" style="shape=mxgraph.cisco.storage.cloud;html=1;dashed=0;strokeColor=#23445D;fillColor=#ffffff;strokeWidth=2;fontFamily=Helvetica;fontSize=24;fontColor=#23445D;align=center;fontStyle=1" parent="1" vertex="1">
          <mxGeometry x="-100" y="2330.73" width="210" height="156.97" as="geometry" />
        </mxCell>
        <mxCell id="12ae3frHGvqBDCMUcqmj-72" value="&lt;p style=&quot;margin-top: 0pt; margin-bottom: 0pt; margin-left: 0in; direction: ltr; unicode-bidi: embed; word-break: normal; font-size: 23px;&quot;&gt;&lt;/p&gt;&lt;p style=&quot;margin-top: 0pt; margin-bottom: 0pt; margin-left: 0in; direction: ltr; unicode-bidi: embed; word-break: normal;&quot;&gt;&lt;font color=&quot;#000000&quot;&gt;Internet&lt;/font&gt;&lt;/p&gt;" style="shape=mxgraph.cisco.storage.cloud;html=1;dashed=0;strokeColor=#23445D;fillColor=#ffffff;strokeWidth=2;fontFamily=Helvetica;fontSize=24;fontColor=#23445D;align=center;fontStyle=1" parent="1" vertex="1">
          <mxGeometry x="1490" y="1907.5" width="190" height="125" as="geometry" />
        </mxCell>
        <mxCell id="12ae3frHGvqBDCMUcqmj-73" style="rounded=1;orthogonalLoop=1;jettySize=auto;html=1;exitX=1;exitY=0.5;exitDx=0;exitDy=0;exitPerimeter=0;strokeColor=#97D077;endArrow=none;endFill=0;strokeWidth=4;entryX=0.04;entryY=0.5;entryDx=0;entryDy=0;entryPerimeter=0;" parent="1" source="12ae3frHGvqBDCMUcqmj-30" target="12ae3frHGvqBDCMUcqmj-72" edge="1">
          <mxGeometry relative="1" as="geometry">
            <mxPoint x="1430" y="2040" as="targetPoint" />
          </mxGeometry>
        </mxCell>
        <mxCell id="12ae3frHGvqBDCMUcqmj-76" value="" style="group" parent="1" vertex="1" connectable="0">
          <mxGeometry x="1532.5" y="2112.21" width="105" height="115.53999999999996" as="geometry" />
        </mxCell>
        <mxCell id="12ae3frHGvqBDCMUcqmj-74" value="" style="shape=mxgraph.cisco.servers.fileserver;html=1;dashed=0;fillColor=#10739E;strokeColor=#ffffff;strokeWidth=2;verticalLabelPosition=bottom;verticalAlign=top;fontFamily=Helvetica;fontSize=36;fontColor=#FFB366;aspect=fixed;" parent="12ae3frHGvqBDCMUcqmj-76" vertex="1">
          <mxGeometry x="23" width="59" height="85.04" as="geometry" />
        </mxCell>
        <mxCell id="12ae3frHGvqBDCMUcqmj-75" value="TMG4SRV&lt;br&gt;IP: 192.168.1.25" style="text;html=1;strokeColor=none;fillColor=none;align=center;verticalAlign=middle;whiteSpace=wrap;rounded=0;" parent="12ae3frHGvqBDCMUcqmj-76" vertex="1">
          <mxGeometry y="85.53999999999996" width="105" height="30" as="geometry" />
        </mxCell>
        <mxCell id="12ae3frHGvqBDCMUcqmj-77" style="rounded=1;orthogonalLoop=1;jettySize=auto;html=1;exitX=0.5;exitY=0;exitDx=0;exitDy=0;exitPerimeter=0;entryX=0.5;entryY=0.99;entryDx=0;entryDy=0;entryPerimeter=0;endArrow=none;endFill=0;strokeColor=#468CAA;strokeWidth=4;" parent="1" source="12ae3frHGvqBDCMUcqmj-74" target="12ae3frHGvqBDCMUcqmj-72" edge="1">
          <mxGeometry relative="1" as="geometry" />
        </mxCell>
        <mxCell id="eVyLxdBei2JVoM4hP0GL-5" style="rounded=1;orthogonalLoop=1;jettySize=auto;html=1;exitX=1;exitY=0.5;exitDx=0;exitDy=0;exitPerimeter=0;strokeColor=#97D077;strokeWidth=4;endArrow=none;endFill=0;edgeStyle=orthogonalEdgeStyle;entryX=0;entryY=1;entryDx=0;entryDy=0;entryPerimeter=0;" parent="1" source="eVyLxdBei2JVoM4hP0GL-3" target="12ae3frHGvqBDCMUcqmj-18" edge="1">
          <mxGeometry relative="1" as="geometry">
            <mxPoint x="308" y="2419" as="sourcePoint" />
            <mxPoint x="500" y="2310" as="targetPoint" />
            <Array as="points">
              <mxPoint x="440" y="2528" />
              <mxPoint x="440" y="2293" />
            </Array>
          </mxGeometry>
        </mxCell>
        <mxCell id="eVyLxdBei2JVoM4hP0GL-6" style="rounded=1;orthogonalLoop=1;jettySize=auto;html=1;exitX=0.98;exitY=0.5;exitDx=0;exitDy=0;exitPerimeter=0;entryX=0;entryY=0.5;entryDx=0;entryDy=0;entryPerimeter=0;endArrow=none;endFill=0;strokeColor=#97D077;strokeWidth=4;edgeStyle=elbowEdgeStyle;" parent="1" source="12ae3frHGvqBDCMUcqmj-69" target="eVyLxdBei2JVoM4hP0GL-3" edge="1">
          <mxGeometry relative="1" as="geometry">
            <mxPoint x="89" y="2426" as="sourcePoint" />
            <mxPoint x="222" y="2419" as="targetPoint" />
            <Array as="points">
              <mxPoint x="106" y="2470" />
            </Array>
          </mxGeometry>
        </mxCell>
        <mxCell id="eVyLxdBei2JVoM4hP0GL-9" style="rounded=1;orthogonalLoop=1;jettySize=auto;html=1;exitX=0;exitY=0.5;exitDx=0;exitDy=0;exitPerimeter=0;entryX=1;entryY=0;entryDx=0;entryDy=0;entryPerimeter=0;endArrow=none;endFill=0;strokeWidth=4;strokeColor=#468CAA;edgeStyle=orthogonalEdgeStyle;" parent="1" source="12ae3frHGvqBDCMUcqmj-74" target="12ae3frHGvqBDCMUcqmj-64" edge="1">
          <mxGeometry relative="1" as="geometry">
            <mxPoint x="1178" y="2000" as="sourcePoint" />
            <mxPoint x="908" y="2214" as="targetPoint" />
          </mxGeometry>
        </mxCell>
        <mxCell id="eVyLxdBei2JVoM4hP0GL-11" value="" style="group" parent="1" vertex="1" connectable="0">
          <mxGeometry x="1690" y="1755" width="220" height="40" as="geometry" />
        </mxCell>
        <mxCell id="eVyLxdBei2JVoM4hP0GL-7" style="rounded=1;orthogonalLoop=1;jettySize=auto;html=1;entryX=0;entryY=0.5;entryDx=0;entryDy=0;entryPerimeter=0;endArrow=none;endFill=0;strokeColor=#97D077;strokeWidth=4;" parent="eVyLxdBei2JVoM4hP0GL-11" edge="1">
          <mxGeometry relative="1" as="geometry">
            <mxPoint y="21" as="sourcePoint" />
            <mxPoint x="126" y="21" as="targetPoint" />
          </mxGeometry>
        </mxCell>
        <mxCell id="eVyLxdBei2JVoM4hP0GL-8" value="&lt;font style=&quot;font-size: 18px;&quot;&gt;備援線路&lt;/font&gt;" style="text;html=1;align=center;verticalAlign=middle;resizable=0;points=[];autosize=1;strokeColor=none;fillColor=none;" parent="eVyLxdBei2JVoM4hP0GL-11" vertex="1">
          <mxGeometry x="120" width="100" height="40" as="geometry" />
        </mxCell>
        <mxCell id="eVyLxdBei2JVoM4hP0GL-12" value="" style="group" parent="1" vertex="1" connectable="0">
          <mxGeometry x="1690" y="1713" width="220" height="40" as="geometry" />
        </mxCell>
        <mxCell id="eVyLxdBei2JVoM4hP0GL-13" style="rounded=1;orthogonalLoop=1;jettySize=auto;html=1;entryX=0;entryY=0.5;entryDx=0;entryDy=0;entryPerimeter=0;endArrow=none;endFill=0;strokeColor=#468CAA;strokeWidth=4;" parent="eVyLxdBei2JVoM4hP0GL-12" edge="1">
          <mxGeometry relative="1" as="geometry">
            <mxPoint y="21" as="sourcePoint" />
            <mxPoint x="126" y="21" as="targetPoint" />
          </mxGeometry>
        </mxCell>
        <mxCell id="eVyLxdBei2JVoM4hP0GL-14" value="&lt;font style=&quot;font-size: 18px;&quot;&gt;主要線路&lt;/font&gt;" style="text;html=1;align=center;verticalAlign=middle;resizable=0;points=[];autosize=1;strokeColor=none;fillColor=none;" parent="eVyLxdBei2JVoM4hP0GL-12" vertex="1">
          <mxGeometry x="120" width="100" height="40" as="geometry" />
        </mxCell>
        <mxCell id="FHWAyMyx4tsviVWadhPC-1" value="&lt;p style=&quot;margin-top: 0pt; margin-bottom: 0pt; margin-left: 0in; direction: ltr; unicode-bidi: embed; word-break: normal; font-size: 23px;&quot;&gt;&lt;/p&gt;&lt;p style=&quot;margin-top: 0pt; margin-bottom: 0pt; margin-left: 0in; direction: ltr; unicode-bidi: embed; word-break: normal;&quot;&gt;&lt;span style=&quot;color: rgb(0, 0, 0); background-color: initial;&quot;&gt;東莞&lt;/span&gt;&lt;br&gt;&lt;/p&gt;" style="shape=mxgraph.cisco.storage.cloud;html=1;dashed=0;strokeColor=#23445D;fillColor=#ffffff;strokeWidth=2;fontFamily=Helvetica;fontSize=24;fontColor=#23445D;align=center;fontStyle=1" vertex="1" parent="1">
          <mxGeometry x="1125" y="1700" width="190" height="125" as="geometry" />
        </mxCell>
        <mxCell id="FHWAyMyx4tsviVWadhPC-2" style="rounded=1;orthogonalLoop=1;jettySize=auto;html=1;exitX=1;exitY=0.25;exitDx=0;exitDy=0;exitPerimeter=0;entryX=0.5;entryY=0.99;entryDx=0;entryDy=0;entryPerimeter=0;endArrow=none;endFill=0;strokeColor=#468CAA;strokeWidth=4;edgeStyle=elbowEdgeStyle;" edge="1" parent="1" source="12ae3frHGvqBDCMUcqmj-30" target="FHWAyMyx4tsviVWadhPC-1">
          <mxGeometry relative="1" as="geometry">
            <mxPoint x="1310" y="2190" as="sourcePoint" />
            <mxPoint x="1310" y="2080" as="targetPoint" />
            <Array as="points">
              <mxPoint x="1220" y="1890" />
            </Array>
          </mxGeometry>
        </mxCell>
        <mxCell id="FHWAyMyx4tsviVWadhPC-5" value="Site to Site VPN" style="text;html=1;align=center;verticalAlign=middle;resizable=0;points=[];autosize=1;strokeColor=none;fillColor=none;" vertex="1" parent="1">
          <mxGeometry x="95" y="2220" width="110" height="30" as="geometry" />
        </mxCell>
        <mxCell id="FHWAyMyx4tsviVWadhPC-7" value="&lt;p style=&quot;margin-top: 0pt; margin-bottom: 0pt; margin-left: 0in; direction: ltr; unicode-bidi: embed; word-break: normal; font-size: 23px;&quot;&gt;&lt;/p&gt;&lt;p style=&quot;margin-top: 0pt; margin-bottom: 0pt; margin-left: 0in; direction: ltr; unicode-bidi: embed; word-break: normal;&quot;&gt;&lt;font color=&quot;#000000&quot;&gt;華亞&lt;/font&gt;&lt;/p&gt;" style="shape=mxgraph.cisco.storage.cloud;html=1;dashed=0;strokeColor=#23445D;fillColor=#ffffff;strokeWidth=2;fontFamily=Helvetica;fontSize=24;fontColor=#23445D;align=center;fontStyle=1" vertex="1" parent="1">
          <mxGeometry x="142" y="1700" width="190" height="125" as="geometry" />
        </mxCell>
        <mxCell id="FHWAyMyx4tsviVWadhPC-8" value="&lt;p style=&quot;margin-top: 0pt; margin-bottom: 0pt; margin-left: 0in; direction: ltr; unicode-bidi: embed; word-break: normal; font-size: 23px;&quot;&gt;&lt;/p&gt;&lt;p style=&quot;margin-top: 0pt; margin-bottom: 0pt; margin-left: 0in; direction: ltr; unicode-bidi: embed; word-break: normal;&quot;&gt;&lt;font color=&quot;#000000&quot;&gt;中和&lt;/font&gt;&lt;/p&gt;" style="shape=mxgraph.cisco.storage.cloud;html=1;dashed=0;strokeColor=#23445D;fillColor=#ffffff;strokeWidth=2;fontFamily=Helvetica;fontSize=24;fontColor=#23445D;align=center;fontStyle=1" vertex="1" parent="1">
          <mxGeometry x="324" y="1700" width="190" height="125" as="geometry" />
        </mxCell>
        <mxCell id="FHWAyMyx4tsviVWadhPC-9" value="&lt;p style=&quot;margin-top: 0pt; margin-bottom: 0pt; margin-left: 0in; direction: ltr; unicode-bidi: embed; word-break: normal; font-size: 23px;&quot;&gt;&lt;/p&gt;&lt;p style=&quot;margin-top: 0pt; margin-bottom: 0pt; margin-left: 0in; direction: ltr; unicode-bidi: embed; word-break: normal;&quot;&gt;&lt;span style=&quot;background-color: initial; font-size: 18pt; color: rgb(0, 0, 0);&quot;&gt;文三三街&lt;/span&gt;&lt;br&gt;&lt;/p&gt;" style="shape=mxgraph.cisco.storage.cloud;html=1;dashed=0;strokeColor=#23445D;fillColor=#ffffff;strokeWidth=2;fontFamily=Helvetica;fontSize=24;fontColor=#23445D;align=center;fontStyle=1" vertex="1" parent="1">
          <mxGeometry x="505" y="1700" width="190" height="125" as="geometry" />
        </mxCell>
        <mxCell id="FHWAyMyx4tsviVWadhPC-10" value="&lt;p style=&quot;margin-top: 0pt; margin-bottom: 0pt; margin-left: 0in; direction: ltr; unicode-bidi: embed; word-break: normal; font-size: 23px;&quot;&gt;&lt;/p&gt;&lt;p style=&quot;margin-top: 0pt; margin-bottom: 0pt; margin-left: 0in; direction: ltr; unicode-bidi: embed; word-break: normal;&quot;&gt;&lt;span style=&quot;background-color: initial; font-size: 18pt; color: rgb(0, 0, 0);&quot;&gt;新竹&lt;/span&gt;&lt;br&gt;&lt;/p&gt;" style="shape=mxgraph.cisco.storage.cloud;html=1;dashed=0;strokeColor=#23445D;fillColor=#ffffff;strokeWidth=2;fontFamily=Helvetica;fontSize=24;fontColor=#23445D;align=center;fontStyle=1" vertex="1" parent="1">
          <mxGeometry x="686.5" y="1700" width="190" height="125" as="geometry" />
        </mxCell>
        <mxCell id="FHWAyMyx4tsviVWadhPC-11" style="rounded=1;orthogonalLoop=1;jettySize=auto;html=1;exitX=0.5;exitY=0.99;exitDx=0;exitDy=0;exitPerimeter=0;entryX=0.5;entryY=0;entryDx=0;entryDy=0;entryPerimeter=0;strokeColor=#468CAA;strokeWidth=4;endArrow=none;endFill=0;edgeStyle=elbowEdgeStyle;elbow=vertical;" edge="1" parent="1" source="FHWAyMyx4tsviVWadhPC-8" target="12ae3frHGvqBDCMUcqmj-18">
          <mxGeometry relative="1" as="geometry">
            <mxPoint x="760.7999999999997" y="1855.0000000000002" as="sourcePoint" />
            <mxPoint x="620" y="2196" as="targetPoint" />
            <Array as="points">
              <mxPoint x="490" y="1900" />
            </Array>
          </mxGeometry>
        </mxCell>
        <mxCell id="FHWAyMyx4tsviVWadhPC-12" style="rounded=1;orthogonalLoop=1;jettySize=auto;html=1;exitX=0.5;exitY=0.99;exitDx=0;exitDy=0;exitPerimeter=0;entryX=0.75;entryY=0;entryDx=0;entryDy=0;entryPerimeter=0;strokeColor=#468CAA;strokeWidth=4;endArrow=none;endFill=0;" edge="1" parent="1" source="FHWAyMyx4tsviVWadhPC-9" target="12ae3frHGvqBDCMUcqmj-18">
          <mxGeometry relative="1" as="geometry">
            <mxPoint x="820.7999999999997" y="1863.0000000000002" as="sourcePoint" />
            <mxPoint x="680" y="2204" as="targetPoint" />
          </mxGeometry>
        </mxCell>
        <mxCell id="FHWAyMyx4tsviVWadhPC-13" style="rounded=1;orthogonalLoop=1;jettySize=auto;html=1;exitX=0.5;exitY=0.99;exitDx=0;exitDy=0;exitPerimeter=0;entryX=1;entryY=0;entryDx=0;entryDy=0;entryPerimeter=0;strokeColor=#468CAA;strokeWidth=4;endArrow=none;endFill=0;edgeStyle=elbowEdgeStyle;elbow=vertical;" edge="1" parent="1" source="FHWAyMyx4tsviVWadhPC-10" target="12ae3frHGvqBDCMUcqmj-18">
          <mxGeometry relative="1" as="geometry">
            <mxPoint x="866.9999999999998" y="1870.0000000000002" as="sourcePoint" />
            <mxPoint x="726.2" y="2211" as="targetPoint" />
            <Array as="points">
              <mxPoint x="700" y="1960" />
            </Array>
          </mxGeometry>
        </mxCell>
        <mxCell id="FHWAyMyx4tsviVWadhPC-14" value="遠傳" style="text;html=1;align=center;verticalAlign=middle;resizable=0;points=[];autosize=1;strokeColor=none;fillColor=none;" vertex="1" parent="1">
          <mxGeometry x="386" y="2098" width="50" height="30" as="geometry" />
        </mxCell>
        <mxCell id="FHWAyMyx4tsviVWadhPC-15" value="是方" style="text;html=1;align=center;verticalAlign=middle;resizable=0;points=[];autosize=1;strokeColor=none;fillColor=none;" vertex="1" parent="1">
          <mxGeometry x="483" y="1961" width="50" height="30" as="geometry" />
        </mxCell>
        <mxCell id="FHWAyMyx4tsviVWadhPC-16" value="遠傳" style="text;html=1;align=center;verticalAlign=middle;resizable=0;points=[];autosize=1;strokeColor=none;fillColor=none;" vertex="1" parent="1">
          <mxGeometry x="422" y="1868" width="50" height="30" as="geometry" />
        </mxCell>
        <mxCell id="FHWAyMyx4tsviVWadhPC-17" value="遠傳" style="text;html=1;align=center;verticalAlign=middle;resizable=0;points=[];autosize=1;strokeColor=none;fillColor=none;" vertex="1" parent="1">
          <mxGeometry x="602.5" y="1840" width="50" height="30" as="geometry" />
        </mxCell>
        <mxCell id="FHWAyMyx4tsviVWadhPC-18" value="遠傳" style="text;html=1;align=center;verticalAlign=middle;resizable=0;points=[];autosize=1;strokeColor=none;fillColor=none;" vertex="1" parent="1">
          <mxGeometry x="730" y="1928" width="50" height="30" as="geometry" />
        </mxCell>
        <mxCell id="FHWAyMyx4tsviVWadhPC-19" value="遠傳" style="text;html=1;align=center;verticalAlign=middle;resizable=0;points=[];autosize=1;strokeColor=none;fillColor=none;" vertex="1" parent="1">
          <mxGeometry x="239" y="1898" width="50" height="30" as="geometry" />
        </mxCell>
        <mxCell id="FHWAyMyx4tsviVWadhPC-20" value="是方" style="text;html=1;align=center;verticalAlign=middle;resizable=0;points=[];autosize=1;strokeColor=none;fillColor=none;" vertex="1" parent="1">
          <mxGeometry x="110" y="2377" width="50" height="30" as="geometry" />
        </mxCell>
        <mxCell id="FHWAyMyx4tsviVWadhPC-21" value="中華" style="text;html=1;align=center;verticalAlign=middle;resizable=0;points=[];autosize=1;strokeColor=none;fillColor=none;" vertex="1" parent="1">
          <mxGeometry x="109" y="2495" width="50" height="30" as="geometry" />
        </mxCell>
      </root>
    </mxGraphModel>
  </diagram>
</mxfile>
